<?xml version="1.0" encoding="utf-8"?>
<svg id="Layer_3" xmlns="http://www.w3.org/2000/svg" viewBox="0 0 2048 1024">
  <defs>
    <style>.cls-1,.cls-2,.cls-3{stroke-width:0px;}.cls-2{fill:#79c4ad;}.cls-3{fill:#fff;}</style>
  </defs>
  <path class="cls-3" d="m675.14,534.27c-2.56,4.17-6.06,7.32-10.51,9.45-4.45,2.13-9.61,3.2-15.48,3.2s-11.08-1.07-15.62-3.2c-4.55-2.13-8.07-5.28-10.58-9.45-2.51-4.17-3.76-9.28-3.76-15.34v-73.01h13.07v71.16c0,3.6.69,6.63,2.06,9.09,1.37,2.46,3.29,4.33,5.75,5.61,2.46,1.28,5.44,1.92,8.95,1.92s6.48-.69,8.95-2.06c2.46-1.37,4.38-3.31,5.75-5.82,1.37-2.51,2.06-5.47,2.06-8.88v-71.02h13.21v73.01c0,6.06-1.28,11.17-3.83,15.34Z" style=""/>
  <path class="cls-3" d="m732.38,491.51c-.66-1.51-1.59-2.77-2.77-3.76-1.19-.99-2.56-1.75-4.12-2.27-1.56-.52-3.2-.78-4.9-.78-1.42,0-2.87.14-4.33.43-1.47.28-2.96.71-4.47,1.28-1.52.57-3.12,1.33-4.83,2.27v56.82h-13.07v-71.3h13.07v3.83c1.14-.76,2.56-1.51,4.26-2.27,1.7-.76,3.55-1.42,5.54-1.99,1.99-.57,4.07-.85,6.25-.85,2.56,0,4.99.26,7.31.78,2.32.52,4.45,1.35,6.39,2.49,1.94,1.14,3.62,2.61,5.04,4.4,1.42,1.8,2.53,4,3.34,6.61.8,2.61,1.21,5.61,1.21,9.02v49.29h-12.93v-48.86c0-1.89-.33-3.6-.99-5.11Z" style=""/>
  <path class="cls-3" d="m796.86,543.43c-1.7.9-3.62,1.63-5.75,2.2-2.13.57-4.24.85-6.32.85-2.46,0-4.85-.26-7.17-.78-2.32-.52-4.5-1.33-6.53-2.42-2.04-1.09-3.79-2.56-5.26-4.4-1.47-1.85-2.61-4.07-3.41-6.68-.81-2.6-1.21-5.7-1.21-9.3v-48.72h13.35v47.87c0,2.94.45,5.3,1.35,7.1.9,1.8,2.2,3.1,3.91,3.91,1.7.81,3.79,1.21,6.25,1.21,1.99,0,3.88-.36,5.68-1.07,1.8-.71,3.36-1.68,4.69-2.91,1.33-1.23,2.37-2.67,3.12-4.33.76-1.66,1.14-3.48,1.14-5.47v-46.31h13.07v71.16h-13.07v-4.69c-.85.95-2.13,1.87-3.83,2.77Z" style=""/>
  <path class="cls-3" d="m863.05,486.33c-1.42-.43-2.89-.78-4.4-1.07-1.52-.28-3.08-.43-4.69-.43-1.23,0-2.51.12-3.83.35-1.33.24-2.58.62-3.76,1.14-1.19.52-2.16,1.21-2.91,2.06-.76.85-1.14,1.99-1.14,3.41,0,1.7.64,3.17,1.92,4.4,1.28,1.23,2.96,2.34,5.04,3.34,2.08.99,4.4,1.97,6.96,2.91,2.56.95,5.09,2.06,7.6,3.34,2.51,1.28,4.81,2.77,6.89,4.47,2.08,1.7,3.76,3.79,5.04,6.25,1.28,2.46,1.92,5.45,1.92,8.95,0,3.69-.71,6.91-2.13,9.66-1.42,2.75-3.32,5.04-5.68,6.89-2.37,1.85-5.07,3.25-8.1,4.19-3.03.95-6.16,1.42-9.37,1.42-5.11,0-10.04-1.09-14.77-3.27-4.74-2.18-8.76-5.11-12.07-8.81l7.53-8.1c1.8,1.61,3.64,3.01,5.54,4.19,1.89,1.19,3.91,2.11,6.04,2.77,2.13.66,4.33,1,6.6,1,1.42,0,2.89-.17,4.4-.5,1.51-.33,2.91-.9,4.19-1.7,1.28-.8,2.32-1.82,3.12-3.05.8-1.23,1.21-2.7,1.21-4.4,0-2.18-.64-3.98-1.92-5.4-1.28-1.42-2.96-2.7-5.04-3.83-2.08-1.14-4.38-2.2-6.89-3.2-2.51-.99-5.02-2.06-7.53-3.2-2.51-1.14-4.81-2.51-6.89-4.12-2.08-1.61-3.76-3.55-5.04-5.82s-1.92-4.97-1.92-8.1c0-3.41.66-6.32,1.99-8.74,1.33-2.42,3.12-4.45,5.4-6.11,2.27-1.66,4.83-2.86,7.67-3.62,2.84-.76,5.68-1.14,8.52-1.14,2.08,0,4.19.17,6.32.5,2.13.33,4.26.85,6.39,1.56,2.13.71,4.09,1.68,5.9,2.91l-4.26,10.51c-1.14-.66-2.42-1.21-3.84-1.63Z" style=""/>
  <path class="cls-3" d="m924.98,543.43c-1.7.9-3.62,1.63-5.75,2.2-2.13.57-4.24.85-6.32.85-2.46,0-4.85-.26-7.17-.78-2.32-.52-4.5-1.33-6.53-2.42-2.04-1.09-3.79-2.56-5.26-4.4-1.47-1.85-2.61-4.07-3.41-6.68-.81-2.6-1.21-5.7-1.21-9.3v-48.72h13.35v47.87c0,2.94.45,5.3,1.35,7.1.9,1.8,2.2,3.1,3.91,3.91,1.7.81,3.79,1.21,6.25,1.21,1.99,0,3.88-.36,5.68-1.07,1.8-.71,3.36-1.68,4.69-2.91,1.33-1.23,2.37-2.67,3.12-4.33.76-1.66,1.14-3.48,1.14-5.47v-46.31h13.07v71.16h-13.07v-4.69c-.85.95-2.13,1.87-3.83,2.77Z" style=""/>
  <path class="cls-3" d="m994.23,489.66c-.81-1.89-1.94-3.38-3.41-4.47-1.47-1.09-3.29-1.87-5.47-2.34-2.18-.47-4.64-.71-7.39-.71l.99-9.23c5.49,0,10.11.5,13.85,1.49,3.74.99,6.77,2.65,9.09,4.97,2.32,2.32,4,5.38,5.04,9.16,1.04,3.79,1.56,8.48,1.56,14.06v42.75c-1.04.09-2.27.24-3.69.43-1.42.19-2.98.36-4.69.5-1.7.14-3.48.24-5.33.28-1.85.05-3.69.12-5.54.21-1.85.09-3.62.14-5.33.14-4.26,0-8.22-.36-11.86-1.07-3.65-.71-6.84-1.99-9.59-3.83-2.75-1.85-4.9-4.35-6.46-7.53-1.56-3.17-2.34-7.12-2.34-11.86v-13.21c0-3.69.54-6.89,1.63-9.59,1.09-2.7,2.58-4.88,4.47-6.53,1.89-1.66,4.05-2.91,6.46-3.76,2.41-.85,4.95-1.28,7.6-1.28s5.3.36,7.95,1.07c2.65.71,5.18,1.73,7.6,3.05,2.41,1.33,4.43,2.89,6.04,4.69,0-3.03-.4-5.49-1.21-7.39Zm-3.62,14.99c-2.08-.9-4.33-1.68-6.75-2.34-2.41-.66-4.85-.99-7.31-.99-1.14,0-2.27.14-3.41.43s-2.18.76-3.12,1.42c-.95.66-1.7,1.63-2.27,2.91s-.85,2.87-.85,4.76v9.66c0,2.37.23,4.45.71,6.25.47,1.8,1.33,3.32,2.56,4.55,1.23,1.23,3.01,2.15,5.33,2.77,2.32.62,5.37.92,9.16.92.95-.09,1.92-.16,2.91-.21.99-.05,1.96-.12,2.91-.21.95-.09,1.8-.16,2.56-.21.76-.05,1.56-.12,2.41-.21v-27.13c-1.14-.66-2.75-1.44-4.83-2.34Z" style=""/>
  <path class="cls-3" d="m1023.27,445.92h13.21v99.43h-13.21v-99.43Z" style=""/>
  <path class="cls-2" d="m1119.74,545.34h-13.07v-86.5h-21.87v-12.93h57.24v12.93h-22.3v86.5Z" style="fill: rgb(157, 235, 174);"/>
  <path class="cls-2" d="m1152.05,529.29c.52,1.23,1.23,2.27,2.13,3.12.9.85,2.01,1.49,3.34,1.92,1.33.43,2.79.64,4.4.64,2.84,0,5.92-.54,9.23-1.63,3.31-1.09,6.53-2.44,9.66-4.05l4.83,11.08c-3.32,2.08-7.1,3.74-11.36,4.97-4.26,1.23-8.38,1.85-12.36,1.85-3.41,0-6.58-.4-9.52-1.21-2.94-.8-5.49-2.04-7.67-3.69-2.18-1.66-3.86-3.81-5.04-6.46-1.18-2.65-1.78-5.87-1.78-9.66v-29.12c0-5.4,1.16-9.89,3.48-13.49,2.32-3.6,5.47-6.3,9.45-8.1,3.98-1.8,8.43-2.7,13.35-2.7s9.54.9,13.28,2.7c3.74,1.8,6.63,4.45,8.66,7.95,2.04,3.5,3.05,7.91,3.05,13.21v21.02l-37.92,1.99v5.25c0,1.71.26,3.17.78,4.4Zm22.8-37.21c-.85-2.18-2.13-3.93-3.83-5.26-1.71-1.33-4.03-1.89-6.96-1.7-3.12,0-5.63.59-7.53,1.78-1.9,1.18-3.25,2.84-4.05,4.97-.81,2.13-1.21,4.71-1.21,7.74v7.81l24.86-1.42v-6.82c0-2.56-.43-4.92-1.28-7.1Z" style="fill: rgb(157, 235, 174);"/>
  <path class="cls-2" d="m1236.49,485.33c-2.37-.62-4.69-.97-6.96-1.07-3.32-.19-6.18.28-8.59,1.42-2.42,1.14-4.24,2.84-5.47,5.11-1.23,2.27-1.9,5.07-1.99,8.38v20.74c0,2.65.36,4.97,1.07,6.96.71,1.99,1.78,3.6,3.2,4.83,1.42,1.23,3.15,2.16,5.18,2.77,2.04.62,4.33.92,6.89.92,1.7,0,3.41-.07,5.11-.21,1.7-.14,3.24-.33,4.62-.57,1.37-.24,2.82-.54,4.33-.92l2.42,10.94c-2.94.76-5.99,1.37-9.16,1.85-3.17.47-6.32.66-9.45.57-5.4-.19-10.16-1.21-14.28-3.05s-7.31-4.69-9.59-8.52c-2.27-3.83-3.41-8.78-3.41-14.84v-20.74c0-5.4,1.02-10.13,3.05-14.2,2.04-4.07,5.06-7.29,9.09-9.66,4.02-2.37,8.97-3.46,14.84-3.27,3.12,0,6.27.43,9.45,1.28,3.17.85,6.23,1.94,9.16,3.27l-2.98,10.37c-1.99-.95-4.17-1.73-6.53-2.34Z" style="fill: rgb(157, 235, 174);"/>
  <path class="cls-2" d="m1275.27,475.53c1.7-.8,3.55-1.47,5.54-1.99,1.99-.52,4.02-.78,6.11-.78,2.56,0,4.99.28,7.31.85,2.32.57,4.47,1.4,6.46,2.49,1.99,1.09,3.72,2.56,5.18,4.4,1.47,1.85,2.6,4.05,3.41,6.6.8,2.56,1.21,5.59,1.21,9.09v49.15h-13.07v-48.86c0-1.89-.33-3.57-.99-5.04-.66-1.47-1.59-2.7-2.77-3.69-1.19-.99-2.56-1.75-4.12-2.27-1.56-.52-3.25-.78-5.04-.78-1.42,0-2.87.14-4.33.43-1.47.28-2.96.71-4.47,1.28-1.52.57-3.12,1.28-4.83,2.13v56.82h-13.07v-99.43h13.07v32.1c1.23-.85,2.7-1.68,4.4-2.49Z" style="fill: rgb(157, 235, 174);"/>
  <path class="cls-2" d="m1363.47,491.51c-.66-1.51-1.59-2.77-2.77-3.76-1.18-.99-2.56-1.75-4.12-2.27-1.56-.52-3.2-.78-4.9-.78-1.42,0-2.87.14-4.33.43-1.47.28-2.96.71-4.47,1.28-1.52.57-3.12,1.33-4.83,2.27v56.82h-13.07v-71.3h13.07v3.83c1.14-.76,2.56-1.51,4.26-2.27,1.7-.76,3.55-1.42,5.54-1.99,1.99-.57,4.07-.85,6.25-.85,2.56,0,4.99.26,7.31.78,2.32.52,4.45,1.35,6.39,2.49,1.94,1.14,3.62,2.61,5.04,4.4,1.42,1.8,2.53,4,3.34,6.61.8,2.61,1.21,5.61,1.21,9.02v49.29h-12.92v-48.86c0-1.89-.33-3.6-1-5.11Z" style="fill: rgb(157, 235, 174);"/>
  <path class="cls-2" d="m1438.19,539.17c-4.26,5.07-10.7,7.6-19.32,7.6-6.16,0-11.22-1.28-15.2-3.83-3.98-2.56-6.91-5.94-8.81-10.16-1.9-4.21-2.84-8.78-2.84-13.71v-18.75c0-6.06,1.04-11.13,3.12-15.2,2.08-4.07,5.11-7.17,9.09-9.3,3.98-2.13,8.81-3.2,14.49-3.2,8.33,0,14.72,2.44,19.18,7.32,4.45,4.88,6.68,11.67,6.68,20.38v18.75c0,8.33-2.13,15.03-6.39,20.1Zm-8.31-47.16c-.9-2.13-2.27-3.74-4.12-4.83-1.85-1.09-4.19-1.63-7.03-1.63s-5.38.55-7.31,1.63c-1.94,1.09-3.43,2.68-4.47,4.76-1.04,2.08-1.56,4.69-1.56,7.81v20.6c0,2.46.5,4.76,1.49,6.89.99,2.13,2.49,3.81,4.47,5.04,1.99,1.23,4.45,1.85,7.39,1.85s5.33-.59,7.17-1.78c1.85-1.18,3.2-2.82,4.05-4.9.85-2.08,1.28-4.45,1.28-7.1v-20.6c0-3.03-.45-5.61-1.35-7.74Z" style="fill: rgb(157, 235, 174);"/>
  <path class="cls-2" d="m1459.06,445.92h13.21v99.43h-13.21v-99.43Z" style="fill: rgb(157, 235, 174);"/>
  <path class="cls-2" d="m1533.21,539.17c-4.26,5.07-10.7,7.6-19.32,7.6-6.16,0-11.22-1.28-15.2-3.83-3.98-2.56-6.91-5.94-8.81-10.16-1.9-4.21-2.84-8.78-2.84-13.71v-18.75c0-6.06,1.04-11.13,3.12-15.2,2.08-4.07,5.11-7.17,9.09-9.3,3.98-2.13,8.81-3.2,14.49-3.2,8.33,0,14.72,2.44,19.18,7.32,4.45,4.88,6.68,11.67,6.68,20.38v18.75c0,8.33-2.13,15.03-6.39,20.1Zm-8.31-47.16c-.9-2.13-2.27-3.74-4.12-4.83-1.85-1.09-4.19-1.63-7.03-1.63s-5.38.55-7.32,1.63c-1.94,1.09-3.43,2.68-4.47,4.76-1.04,2.08-1.56,4.69-1.56,7.81v20.6c0,2.46.5,4.76,1.49,6.89.99,2.13,2.49,3.81,4.47,5.04,1.99,1.23,4.45,1.85,7.39,1.85s5.33-.59,7.17-1.78c1.85-1.18,3.2-2.82,4.05-4.9.85-2.08,1.28-4.45,1.28-7.1v-20.6c0-3.03-.45-5.61-1.35-7.74Z" style="fill: rgb(157, 235, 174);"/>
  <path class="cls-2" d="m1601.38,565.8c-1.52,2.93-3.76,5.16-6.75,6.68-2.98,1.51-6.6,2.46-10.87,2.84l-3.27-10.23c1.33-.19,2.58-.55,3.76-1.06,1.18-.52,2.25-1.26,3.2-2.2.95-.95,1.71-2.13,2.27-3.55.57-1.42.85-3.08.85-4.97v-11.93c-.76.85-1.7,1.63-2.84,2.34-1.14.71-2.37,1.3-3.69,1.78-1.33.47-2.72.85-4.19,1.14-1.47.28-2.96.43-4.47.43-7.86,0-13.87-2.29-18.04-6.89-4.17-4.59-6.25-11.24-6.25-19.96v-24c0-4.92.9-9.14,2.7-12.64,1.8-3.5,4.4-6.2,7.81-8.1,3.41-1.89,7.62-2.79,12.64-2.7,1.89.09,3.79.35,5.68.78,1.89.43,3.74,1.04,5.54,1.85,1.8.81,3.5,1.87,5.11,3.2v-4.4h13.07v80.25c0,4.64-.76,8.43-2.27,11.36Zm-12.64-77.34c-.95-.62-2.08-1.18-3.41-1.71-1.33-.52-2.7-.99-4.12-1.42-1.42-.43-2.75-.64-3.98-.64-1.61-.09-3.2.05-4.76.43-1.56.38-2.96,1.04-4.19,1.99-1.23.95-2.23,2.25-2.98,3.91-.76,1.66-1.14,3.67-1.14,6.04v25.28c0,2.56.47,4.81,1.42,6.75.95,1.94,2.32,3.46,4.12,4.54,1.8,1.09,4.02,1.59,6.68,1.49,2.27-.09,4.26-.43,5.97-.99,1.71-.57,3.17-1.37,4.4-2.42,1.23-1.04,2.18-2.22,2.84-3.55.66-1.33.99-2.75.99-4.26v-33.81c-.28-.47-.9-1.02-1.85-1.63Z" style="fill: rgb(157, 235, 174);"/>
  <path class="cls-2" d="m1630.22,446.48c1.42,1.33,2.13,3.03,2.13,5.11s-.71,3.69-2.13,5.11c-1.42,1.42-3.12,2.13-5.11,2.13s-3.69-.71-5.11-2.13c-1.42-1.42-2.13-3.12-2.13-5.11s.71-3.79,2.13-5.11c1.42-1.33,3.12-1.99,5.11-1.99s3.69.66,5.11,1.99Zm-11.79,27.7h13.21v71.16h-13.21v-71.16Z" style="fill: rgb(157, 235, 174);"/>
  <path class="cls-2" d="m1660.12,529.29c.52,1.23,1.23,2.27,2.13,3.12.9.85,2.01,1.49,3.34,1.92,1.33.43,2.79.64,4.4.64,2.84,0,5.92-.54,9.23-1.63,3.31-1.09,6.53-2.44,9.66-4.05l4.83,11.08c-3.32,2.08-7.1,3.74-11.36,4.97-4.26,1.23-8.38,1.85-12.36,1.85-3.41,0-6.58-.4-9.52-1.21-2.94-.8-5.49-2.04-7.67-3.69-2.18-1.66-3.86-3.81-5.04-6.46-1.18-2.65-1.78-5.87-1.78-9.66v-29.12c0-5.4,1.16-9.89,3.48-13.49,2.32-3.6,5.47-6.3,9.45-8.1,3.98-1.8,8.43-2.7,13.35-2.7s9.54.9,13.28,2.7c3.74,1.8,6.63,4.45,8.66,7.95,2.04,3.5,3.05,7.91,3.05,13.21v21.02l-37.92,1.99v5.25c0,1.71.26,3.17.78,4.4Zm22.8-37.21c-.85-2.18-2.13-3.93-3.83-5.26-1.7-1.33-4.03-1.89-6.96-1.7-3.12,0-5.63.59-7.53,1.78-1.9,1.18-3.24,2.84-4.05,4.97-.81,2.13-1.21,4.71-1.21,7.74v7.81l24.86-1.42v-6.82c0-2.56-.43-4.92-1.28-7.1Z" style="fill: rgb(157, 235, 174);"/>
  <path class="cls-2" d="m1742.43,486.33c-1.42-.43-2.89-.78-4.4-1.07-1.52-.28-3.08-.43-4.69-.43-1.23,0-2.51.12-3.83.35-1.33.24-2.58.62-3.76,1.14-1.18.52-2.15,1.21-2.91,2.06-.76.85-1.14,1.99-1.14,3.41,0,1.7.64,3.17,1.92,4.4,1.28,1.23,2.96,2.34,5.04,3.34,2.08.99,4.4,1.97,6.96,2.91,2.56.95,5.09,2.06,7.6,3.34,2.51,1.28,4.8,2.77,6.89,4.47,2.08,1.7,3.76,3.79,5.04,6.25,1.28,2.46,1.92,5.45,1.92,8.95,0,3.69-.71,6.91-2.13,9.66-1.42,2.75-3.32,5.04-5.68,6.89-2.37,1.85-5.07,3.25-8.1,4.19-3.03.95-6.16,1.42-9.38,1.42-5.11,0-10.04-1.09-14.77-3.27-4.74-2.18-8.76-5.11-12.07-8.81l7.53-8.1c1.8,1.61,3.64,3.01,5.54,4.19,1.89,1.19,3.91,2.11,6.04,2.77,2.13.66,4.33,1,6.6,1,1.42,0,2.89-.17,4.4-.5,1.51-.33,2.91-.9,4.19-1.7,1.28-.8,2.32-1.82,3.12-3.05.8-1.23,1.21-2.7,1.21-4.4,0-2.18-.64-3.98-1.92-5.4-1.28-1.42-2.96-2.7-5.04-3.83-2.08-1.14-4.38-2.2-6.89-3.2-2.51-.99-5.02-2.06-7.53-3.2-2.51-1.14-4.81-2.51-6.89-4.12-2.08-1.61-3.76-3.55-5.04-5.82-1.28-2.27-1.92-4.97-1.92-8.1,0-3.41.66-6.32,1.99-8.74,1.33-2.42,3.12-4.45,5.4-6.11,2.27-1.66,4.83-2.86,7.67-3.62,2.84-.76,5.68-1.14,8.52-1.14,2.08,0,4.19.17,6.32.5,2.13.33,4.26.85,6.39,1.56,2.13.71,4.09,1.68,5.89,2.91l-4.26,10.51c-1.14-.66-2.42-1.21-3.83-1.63Z" style="fill: rgb(157, 235, 174);"/>
  <path class="cls-2" d="M 424.173 714.489 L 424.173 678.349 C 424.404 670.709 428.074 665.98 430.98 663.752 C 439.323 657.93 450.914 660.445 454.764 661.808 C 457.699 662.853 459.085 663.422 460.604 664.112 C 462.115 664.798 463.767 665.603 467.332 667.156 C 469.099 667.932 471.222 668.598 473.314 668.842 C 475.374 669.083 476.759 669.112 477.577 668.182 C 478.377 667.585 478.403 667.417 478.438 666.982 C 478.472 666.57 478.388 666.334 477.93 665.61 C 476.841 663.281 472.164 662.329 467.926 661.304 C 437.417 653.623 428.453 659.934 414.633 662.942 C 410.485 663.703 408.509 665.253 403.609 665.82 C 397.309 666.236 391.697 664.532 387.797 661.73 C 383.852 658.897 381.126 654.559 380.169 650.45 C 379.45 646.922 379.809 642.329 382.022 638.357 C 384.189 634.467 388.449 630.668 394.797 628.195 C 407.038 623.581 441.687 615.306 476.38 625.457 C 480.022 626.55 482.907 626.923 485.236 626.595 C 487.43 626.285 488.543 625.785 489.078 624.124 C 489.701 622.74 489.911 621.776 489.758 620.677 C 489.605 619.571 489.248 618.784 487.949 617.737 C 480.077 610.635 459.165 608.647 427.549 615.583 C 408.019 619.835 393.193 622.129 382.102 615.139 C 371.517 607.967 365.539 594.626 364.296 575.194 C 363.08 548.689 346.601 532.625 328.812 509.385 C 309.532 484.185 289.376 457.5 288.89 422.92 L 288.891 422.584 C 290.937 371.473 310.275 333.832 337.301 309.38 C 364.363 284.893 399.567 273.152 432.67 273.1 L 432.69 273.1 C 465.802 273.152 501.015 284.896 528.079 309.383 C 555.107 333.837 574.444 371.554 576.48 422.66 L 576.48 422.87 C 576.263 463.243 560.915 482.885 547.555 499.676 C 543.615 504.626 539.962 509.2 537.021 513.991 C 530.181 525.008 514.393 555.78 511.28 561.79 C 502.904 577.588 489.058 587.145 473.948 587.624 C 460.759 587.818 447.719 582.812 438.697 574.093 C 429.15 564.469 426.308 551.363 426.295 535.923 L 426.293 533.899 L 439.627 534.059 L 439.623 536.035 C 439.6 548.062 442.594 556.787 449.367 563.196 C 455.548 569.374 464.228 572.617 473.627 572.374 C 480.253 572.346 485.158 569.616 489.23 565.988 C 493.275 562.385 496.007 558.088 497.755 554.727 C 500.321 549.849 516.309 518.562 524.038 505.989 C 527.476 500.432 531.465 495.405 535.615 490.185 C 548.405 474.105 561.407 458.12 561.23 423.023 C 559.528 376.524 542.272 343.133 517.89 320.947 C 493.546 298.795 462.541 288.303 432.68 288.35 L 432.67 288.35 C 402.824 288.298 371.831 298.787 347.491 320.936 C 323.113 343.119 305.854 378 304.13 424.484 C 304.256 454.03 321.948 475.325 340.918 500.115 C 358.958 523.695 377.705 543.283 379.519 574.328 C 380.359 589.067 383.912 598.272 390.494 602.4 C 396.97 607.052 407.013 604.308 422.924 601.069 C 460.338 593.527 484.665 597.864 496.236 604.949 C 500.847 607.897 503.89 612.082 504.89 616.458 C 505.889 620.825 505.056 625.934 502.865 630.616 C 500.951 634.506 497.155 638.54 491.923 640.532 C 486.793 642.485 479.712 642.682 471.429 639.851 C 443.085 629.75 417.839 636.018 400.025 642.496 C 397.963 643.22 396.693 644.034 395.811 645.026 C 395.009 645.928 394.744 646.344 395.069 647.206 C 395.192 648.211 395.772 648.842 397.053 649.594 C 398.42 650.397 400.032 650.843 402.419 650.602 C 405.627 650.442 406.889 649.699 411.551 648.668 C 425.119 645.823 438.879 639.125 473.379 647.008 C 481.211 648.852 487.842 650.839 492.203 659.317 C 493.524 662.346 493.722 666.04 493.057 669.07 C 492.389 672.117 490.759 675.135 488.966 676.974 C 486.244 679.576 481.748 681.666 476.926 682.301 C 472.152 682.93 466.45 682.241 461.28 679.872 C 457.807 678.241 452.231 675.365 450.087 674.763 C 445.262 673.203 442.136 674.352 440.151 675.928 C 439.74 676.231 439.036 676.266 439.433 678.339 L 439.433 713.307 L 438.251 714.489 L 424.173 714.489 Z" style="fill: rgb(157, 235, 174);"/>
  <rect class="cls-1" x="423.23" y="722.987" width="18.89" height="15.32" style="fill: rgb(255, 255, 255);"/>
  <path class="cls-1" d="M 415.33 690.602 C 415.448 688.337 416.63 685.89 418.321 684.473 C 419.98 683.083 422.598 682.164 425.09 682.1 L 440.25 682.1 C 442.742 682.164 445.36 683.083 447.02 684.473 C 448.71 685.89 449.892 688.337 450.01 690.602 L 450.01 725.847 L 415.33 725.847 Z" style="fill: rgb(255, 255, 255);"/>
  <path class="cls-2" d="M 440.25 683.085 C 442.355 683.15 444.627 683.947 446.032 685.139 C 447.465 686.356 448.484 688.522 448.6 690.48 L 448.6 722.998 L 448.6 724.998 L 446.6 724.998 L 418.75 724.998 L 416.75 724.998 L 416.75 722.998 L 416.75 690.48 C 416.865 688.527 417.881 686.362 419.313 685.144 C 420.716 683.95 422.989 683.151 425.1 683.085 L 440.26 683.085 M 445.447 686.488 C 444.042 685.293 442.434 684.615 440.26 684.68 L 425.1 684.68 C 422.926 684.615 421.318 685.293 419.913 686.488 C 418.536 687.657 417.814 688.789 417.93 690.472 L 417.93 723.394 L 447.43 723.394 L 447.43 690.472 C 447.545 688.789 446.824 687.657 445.447 686.488 Z" style="fill: rgb(255, 255, 255);"/>
  <path class="cls-2" d="M 484.206 378.439 C 493.377 388.402 498.892 402.154 498.892 416.032 C 498.892 442.797 496.652 469.902 492.283 496.266 L 491.644 500.11 C 489.353 513.242 482.493 525.827 472.88 534.561 C 462.987 543.212 449.856 548.275 436.987 548.407 L 432.638 548.407 C 419.761 548.275 406.626 543.198 396.74 534.547 C 387.125 525.814 380.281 513.247 377.991 500.104 L 377.35 496.265 C 372.983 469.902 370.742 442.797 370.742 416.032 C 370.742 402.155 376.265 388.387 385.444 378.421 C 394.975 368.514 408.256 362.693 421.671 362.527 L 447.951 362.527 C 460.788 362.686 473.508 368.037 482.931 377.181 L 483.037 377.181 L 483.626 377.814 L 484.206 378.439 Z M 421.979 378.402 C 412.322 378.198 404.275 382.262 397.898 389.311 C 391.407 396.3 387.613 405.302 387.767 416.018 C 387.748 430.867 388.205 442.232 389.448 456.33 C 420.599 452.788 447.384 452.328 480.138 456.323 C 481.264 442.97 481.836 430.886 481.818 416.036 C 481.972 405.32 478.181 396.3 471.69 389.31 C 465.315 382.262 457.287 378.198 447.627 378.402 L 421.979 378.402 Z M 426.695 469.575 C 413.934 469.828 404.939 470.384 391.108 472.197 C 392.156 481.233 393.251 489.056 395.027 499.387 C 396.488 509.15 400.919 517.011 407.516 522.963 C 413.49 528.475 419.458 531.275 426.786 531.97 L 427.784 532.065 L 427.501 532.185 C 427.411 532.223 433.142 532.658 434.72 532.645 C 436.106 532.64 441.301 532.158 441.237 532.153 L 440.789 532.116 L 441.723 532.055 C 449.534 531.549 455.818 528.74 462.087 522.954 C 468.684 517.003 473.106 509.188 474.566 499.426 C 476.343 489.091 477.429 481.726 478.501 472.187 C 465.694 470.561 455.951 469.85 442.907 469.569 L 442.907 474.099 C 444.051 474.923 444.965 475.655 446.149 477.055 C 447.987 479.34 449.67 483.197 450.486 485.537 C 451.159 487.572 451.304 489.003 451.457 490.739 C 451.635 492.768 451.742 495.335 451.449 497.804 C 451.135 500.318 450.561 503.437 449.372 506.088 C 448.125 508.733 445.775 511.924 443.974 513.617 C 442.391 515.011 440.711 515.815 439.283 516.309 C 437.821 516.788 436.144 516.994 434.73 516.939 C 433.347 516.859 431.797 516.527 430.35 515.882 C 428.773 515.123 426.818 513.67 425.554 512.444 C 424.346 511.237 423.417 509.912 422.614 508.512 C 421.736 506.954 420.886 504.88 420.362 503.227 C 419.881 501.68 419.607 500.336 419.415 498.653 C 419.202 496.755 418.988 494.308 419.239 491.751 C 419.537 488.973 420.263 485.078 421.481 482.242 C 422.674 479.597 424.75 476.835 426.319 475.255 C 426.691 474.887 426.567 475.015 426.695 474.898 L 426.695 469.575 Z" style="fill: rgb(255, 255, 255);"/>
</svg>