<svg xmlns="http://www.w3.org/2000/svg" viewBox="0 0 295 455">
  <style>
    .icon-main { fill: #79c4ad; }
    .icon-detail { fill: #f2f2f2; }
    @media (prefers-color-scheme: light) {
      .icon-main { fill: #0097b2; }
      .icon-detail { fill: #1d1d1f; }
    }
  </style>
  <path class="icon-main" d="M 137.058 424.583 L 137.058 390.545 C 137.289 383.349 140.966 378.894 143.878 376.796 C 152.237 371.312 163.851 373.681 167.709 374.965 C 170.649 375.95 172.038 376.485 173.56 377.135 C 175.074 377.781 176.729 378.539 180.301 380.002 C 182.072 380.733 184.199 381.36 186.295 381.59 C 188.359 381.817 189.747 381.844 190.566 380.968 C 191.368 380.406 191.394 380.248 191.429 379.839 C 191.463 379.45 191.379 379.228 190.92 378.546 C 189.829 376.352 185.143 375.456 180.896 374.49 C 150.328 367.256 141.346 373.2 127.499 376.033 C 123.343 376.75 121.363 378.21 116.453 378.744 C 110.141 379.136 104.518 377.531 100.61 374.891 C 96.657 372.223 93.926 368.137 92.967 364.267 C 92.247 360.944 92.606 356.619 94.824 352.877 C 96.995 349.213 101.263 345.635 107.624 343.306 C 119.889 338.96 154.606 331.166 189.367 340.727 C 193.016 341.756 195.907 342.108 198.24 341.799 C 200.439 341.507 201.554 341.036 202.09 339.471 C 202.714 338.168 202.925 337.261 202.771 336.225 C 202.618 335.183 202.26 334.442 200.959 333.456 C 193.071 326.767 172.118 324.894 140.44 331.427 C 120.872 335.432 106.017 337.593 94.904 331.009 C 84.298 324.253 78.308 311.689 77.063 293.386 C 75.845 268.422 59.333 253.291 41.509 231.403 C 22.192 207.667 1.996 182.534 1.509 149.964 L 1.51 149.647 C 3.56 101.507 22.936 66.054 50.015 43.024 C 77.13 19.961 112.403 8.902 145.571 8.853 L 145.591 8.853 C 178.768 8.902 214.05 19.963 241.168 43.027 C 268.249 66.059 287.624 101.583 289.664 149.719 L 289.664 149.917 C 289.446 187.943 274.068 206.443 260.682 222.258 C 256.734 226.92 253.074 231.229 250.127 235.74 C 243.274 246.117 227.455 275.1 224.336 280.761 C 215.943 295.641 202.07 304.642 186.93 305.094 C 173.715 305.276 160.65 300.561 151.61 292.349 C 142.044 283.284 139.197 270.94 139.184 256.398 L 139.182 254.492 L 152.542 254.642 L 152.538 256.503 C 152.515 267.831 155.515 276.049 162.301 282.085 C 168.494 287.904 177.191 290.959 186.609 290.73 C 193.248 290.704 198.162 288.132 202.242 284.715 C 206.295 281.322 209.033 277.274 210.784 274.109 C 213.355 269.514 229.374 240.046 237.119 228.204 C 240.563 222.97 244.56 218.236 248.718 213.318 C 261.533 198.174 274.561 183.118 274.384 150.061 C 272.678 106.265 255.388 74.815 230.959 53.919 C 206.567 33.054 175.501 23.172 145.581 23.217 L 145.571 23.217 C 115.667 23.168 84.613 33.047 60.225 53.908 C 35.799 74.802 18.506 107.655 16.779 151.436 C 16.905 179.265 34.632 199.322 53.639 222.671 C 71.715 244.881 90.498 263.33 92.316 292.57 C 93.158 306.452 96.718 315.122 103.312 319.011 C 109.801 323.392 119.864 320.807 135.806 317.756 C 173.294 310.654 197.668 314.739 209.262 321.411 C 213.882 324.188 216.931 328.129 217.933 332.251 C 218.934 336.364 218.099 341.176 215.904 345.586 C 213.986 349.251 210.183 353.049 204.941 354.926 C 199.801 356.765 192.706 356.951 184.406 354.285 C 156.007 344.771 130.711 350.674 112.862 356.776 C 110.796 357.458 109.524 358.225 108.64 359.159 C 107.836 360.008 107.571 360.4 107.896 361.211 C 108.02 362.159 108.601 362.752 109.884 363.461 C 111.254 364.217 112.869 364.638 115.261 364.41 C 118.475 364.26 119.74 363.56 124.411 362.589 C 138.005 359.909 151.792 353.601 186.36 361.025 C 194.208 362.762 200.852 364.634 205.221 372.619 C 206.545 375.472 206.743 378.951 206.077 381.805 C 205.408 384.675 203.774 387.517 201.978 389.249 C 199.25 391.7 194.746 393.669 189.914 394.267 C 185.131 394.859 179.418 394.21 174.237 391.979 C 170.758 390.443 165.171 387.734 163.022 387.167 C 158.188 385.698 155.056 386.78 153.067 388.264 C 152.655 388.549 151.95 388.582 152.348 390.535 L 152.348 423.47 L 151.163 424.583 L 137.058 424.583 Z"/>
  <rect class="icon-detail" x="136.113" y="432.587" width="18.927" height="14.429"/>
  <path class="icon-detail" d="M 128.197 402.085 C 128.315 399.952 129.5 397.647 131.194 396.312 C 132.856 395.003 135.48 394.137 137.976 394.077 L 153.166 394.077 C 155.663 394.137 158.286 395.003 159.949 396.312 C 161.643 397.647 162.827 399.952 162.945 402.085 L 162.945 435.282 L 128.197 435.282 L 128.197 402.085 Z"/>
  <path class="icon-detail" d="M 153.166 395.005 C 155.275 395.067 157.552 395.817 158.96 396.94 C 160.395 398.086 161.416 400.126 161.533 401.97 L 161.533 432.598 L 161.533 434.482 L 159.529 434.482 L 131.624 434.482 L 129.62 434.482 L 129.62 432.598 L 129.62 401.97 C 129.735 400.131 130.753 398.091 132.188 396.945 C 133.594 395.819 135.871 395.068 137.986 395.005 L 153.176 395.005 M 158.373 398.21 C 156.966 397.085 155.354 396.446 153.176 396.507 L 137.986 396.507 C 135.808 396.446 134.197 397.085 132.789 398.21 C 131.41 399.312 130.686 400.377 130.802 401.963 L 130.802 432.971 L 160.36 432.971 L 160.36 401.963 C 160.475 400.377 159.753 399.312 158.373 398.21 Z"/>
  <path class="icon-main" d="M 197.208 108.068 C 206.397 117.452 211.923 130.405 211.923 143.477 C 211.923 168.685 209.679 194.215 205.301 219.047 L 204.661 222.667 C 202.366 235.035 195.492 246.889 185.86 255.115 C 175.948 263.264 162.791 268.031 149.897 268.156 L 145.539 268.156 C 132.637 268.031 119.476 263.25 109.571 255.101 C 99.937 246.876 93.079 235.04 90.785 222.661 L 90.143 219.046 C 85.767 194.215 83.522 168.685 83.522 143.477 C 83.522 130.406 89.056 117.438 98.253 108.051 C 107.802 98.721 121.109 93.238 134.551 93.082 L 160.882 93.082 C 173.744 93.231 186.489 98.271 195.931 106.884 L 196.037 106.884 L 196.627 107.48 L 197.208 108.068 Z M 134.859 108.033 C 125.183 107.841 117.121 111.669 110.731 118.308 C 104.227 124.891 100.426 133.37 100.58 143.463 C 100.561 157.449 101.019 168.153 102.264 181.432 C 133.477 178.096 160.314 177.662 193.132 181.425 C 194.261 168.848 194.834 157.467 194.816 143.48 C 194.97 133.387 191.172 124.891 184.668 118.307 C 178.28 111.669 170.237 107.841 160.558 108.033 L 134.859 108.033 Z M 139.585 193.906 C 126.798 194.145 117.786 194.668 103.928 196.376 C 104.978 204.887 106.075 212.255 107.854 221.986 C 109.318 231.182 113.758 238.585 120.368 244.191 C 126.354 249.383 132.333 252.02 139.676 252.674 L 140.676 252.764 L 140.392 252.878 C 140.302 252.913 146.044 253.322 147.625 253.31 C 149.014 253.306 154.219 252.852 154.155 252.847 L 153.706 252.813 L 154.642 252.754 C 162.468 252.278 168.765 249.633 175.046 244.183 C 181.656 238.578 186.087 231.217 187.55 222.022 C 189.33 212.288 190.418 205.351 191.492 196.367 C 178.66 194.835 168.898 194.166 155.828 193.901 L 155.828 198.168 C 156.975 198.944 157.89 199.633 159.077 200.952 C 160.918 203.104 162.605 206.737 163.422 208.941 C 164.097 210.857 164.242 212.205 164.395 213.84 C 164.574 215.751 164.681 218.169 164.387 220.494 C 164.073 222.862 163.497 225.8 162.306 228.297 C 161.057 230.788 158.702 233.794 156.897 235.389 C 155.311 236.701 153.628 237.458 152.197 237.924 C 150.732 238.376 149.052 238.569 147.635 238.518 C 146.25 238.442 144.697 238.129 143.247 237.522 C 141.667 236.807 139.708 235.439 138.441 234.283 C 137.231 233.147 136.3 231.899 135.496 230.58 C 134.616 229.113 133.764 227.16 133.239 225.603 C 132.757 224.146 132.483 222.879 132.29 221.294 C 132.077 219.507 131.862 217.202 132.114 214.793 C 132.412 212.177 133.14 208.508 134.36 205.837 C 135.556 203.346 137.636 200.745 139.208 199.257 C 139.581 198.909 139.456 199.031 139.585 198.92 L 139.585 193.906 Z"/>
</svg>
